<svg data-v-fde0c5aa="" xmlns="http://www.w3.org/2000/svg" viewBox="0 0 300 300" class="font"><!----><defs data-v-fde0c5aa=""><linearGradient data-v-fde0c5aa="" gradientTransform="rotate(25)" id="abf581c6-5529-4aa0-b154-389fe49c5df1" x1="0%" y1="0%" x2="100%" y2="0%"><stop data-v-fde0c5aa="" offset="0%" stop-color="#6566CE" stop-opacity="1"></stop><stop data-v-fde0c5aa="" offset="100%" stop-color="#DBC1D0" stop-opacity="1"></stop></linearGradient></defs><rect data-v-fde0c5aa="" fill="url(#abf581c6-5529-4aa0-b154-389fe49c5df1)" x="0" y="0" width="300px" height="300px" class="logo-background-square"></rect><defs data-v-fde0c5aa=""><!----></defs><g data-v-fde0c5aa="" id="ffa48ded-6262-4780-805a-ac9573aa2f6a" fill="#ffffff" transform="matrix(3.3107601219509113,0,0,3.3107601219509113,38.80812630873687,123.38148953515686)"><path d="M0.40 4.32L0.40 3.64L0.40 3.64Q0.81 3.66 1.26 3.66L1.26 3.66L1.26 3.66Q1.71 3.66 2.08 3.66L2.08 3.66L2.08 3.66Q2.11 3.66 2.29 3.65L2.29 3.65L2.29 3.65Q2.47 3.65 2.69 3.65L2.69 3.65L2.69 3.65Q2.90 3.65 3.09 3.65L3.09 3.65L3.09 3.65Q3.27 3.64 3.32 3.64L3.32 3.64L6.03 11.01L6.03 11.01Q6.04 10.98 6.16 10.65L6.16 10.65L6.16 10.65Q6.28 10.33 6.46 9.81L6.46 9.81L6.46 9.81Q6.65 9.30 6.89 8.65L6.89 8.65L6.89 8.65Q7.13 8.00 7.38 7.33L7.38 7.33L7.38 7.33Q7.63 6.66 7.87 6.01L7.87 6.01L7.87 6.01Q8.11 5.37 8.30 4.85L8.30 4.85L8.30 4.85Q8.49 4.33 8.61 4.01L8.61 4.01L8.61 4.01Q8.73 3.68 8.74 3.64L8.74 3.64L8.74 3.64Q8.77 3.64 8.89 3.64L8.89 3.64L8.89 3.64Q9.00 3.64 9.16 3.65L9.16 3.65L9.16 3.65Q9.32 3.65 9.49 3.65L9.49 3.65L9.49 3.65Q9.67 3.66 9.82 3.66L9.82 3.66L9.82 3.66Q9.98 3.66 10.09 3.66L10.09 3.66L10.09 3.66Q10.20 3.66 10.23 3.66L10.23 3.66L10.23 3.66Q10.40 3.66 10.59 3.66L10.59 3.66L10.59 3.66Q10.79 3.66 10.98 3.66L10.98 3.66L10.98 3.66Q11.18 3.66 11.36 3.65L11.36 3.65L11.36 3.65Q11.55 3.65 11.70 3.64L11.70 3.64L11.70 4.32L11.28 4.32L11.28 4.32Q11.01 4.32 10.87 4.35L10.87 4.35L10.87 4.35Q10.72 4.38 10.65 4.44L10.65 4.44L10.65 4.44Q10.58 4.50 10.57 4.59L10.57 4.59L10.57 4.59Q10.55 4.68 10.55 4.79L10.55 4.79L10.55 11.18L10.55 11.18Q10.55 11.40 10.59 11.52L10.59 11.52L10.59 11.52Q10.62 11.64 10.70 11.70L10.70 11.70L10.70 11.70Q10.78 11.76 10.93 11.77L10.93 11.77L10.93 11.77Q11.07 11.79 11.31 11.79L11.31 11.79L11.72 11.79L11.72 12.46L11.72 12.46Q11.48 12.46 11.26 12.46L11.26 12.46L11.26 12.46Q11.04 12.46 10.80 12.46L10.80 12.46L10.80 12.46Q10.57 12.46 10.30 12.45L10.30 12.45L10.30 12.45Q10.04 12.45 9.71 12.45L9.71 12.45L9.71 12.45Q9.45 12.45 9.26 12.45L9.26 12.45L9.26 12.45Q9.06 12.46 8.90 12.46L8.90 12.46L8.90 12.46Q8.74 12.46 8.58 12.46L8.58 12.46L8.58 12.46Q8.43 12.46 8.26 12.46L8.26 12.46L8.26 11.79L8.67 11.79L8.67 11.79Q8.94 11.79 9.10 11.74L9.10 11.74L9.10 11.74Q9.25 11.70 9.32 11.61L9.32 11.61L9.32 11.61Q9.39 11.53 9.41 11.42L9.41 11.42L9.41 11.42Q9.42 11.31 9.42 11.17L9.42 11.17L9.42 4.26L8.80 5.89L6.32 12.46L5.55 12.46L5.55 12.46Q5.30 11.81 5.03 11.10L5.03 11.10L5.03 11.10Q4.76 10.39 4.49 9.66L4.49 9.66L4.49 9.66Q4.22 8.93 3.95 8.21L3.95 8.21L3.95 8.21Q3.68 7.48 3.42 6.79L3.42 6.79L3.42 6.79Q3.16 6.10 2.92 5.46L2.92 5.46L2.92 5.46Q2.68 4.83 2.47 4.29L2.47 4.29L2.47 11.22L2.47 11.22Q2.47 11.42 2.49 11.54L2.49 11.54L2.49 11.54Q2.52 11.65 2.59 11.70L2.59 11.70L2.59 11.70Q2.67 11.76 2.81 11.77L2.81 11.77L2.81 11.77Q2.95 11.79 3.19 11.79L3.19 11.79L3.60 11.79L3.60 12.46L3.60 12.46Q3.42 12.46 3.27 12.46L3.27 12.46L3.27 12.46Q3.11 12.46 2.94 12.46L2.94 12.46L2.94 12.46Q2.76 12.46 2.56 12.45L2.56 12.45L2.56 12.45Q2.37 12.45 2.11 12.45L2.11 12.45L2.11 12.45Q1.84 12.45 1.61 12.45L1.61 12.45L1.61 12.45Q1.37 12.46 1.17 12.46L1.17 12.46L1.17 12.46Q0.96 12.46 0.76 12.46L0.76 12.46L0.76 12.46Q0.56 12.46 0.36 12.46L0.36 12.46L0.36 11.79L0.78 11.79L0.78 11.79Q1.09 11.79 1.24 11.75L1.24 11.75L1.24 11.75Q1.39 11.72 1.46 11.65L1.46 11.65L1.46 11.65Q1.52 11.58 1.53 11.47L1.53 11.47L1.53 11.47Q1.53 11.36 1.53 11.21L1.53 11.21L1.54 4.81L1.54 4.81Q1.54 4.64 1.50 4.54L1.50 4.54L1.50 4.54Q1.46 4.44 1.37 4.40L1.37 4.40L1.37 4.40Q1.29 4.35 1.15 4.33L1.15 4.33L1.15 4.33Q1.00 4.32 0.81 4.32L0.81 4.32L0.40 4.32ZM13.90 3.47L13.90 3.47L13.90 3.47Q14.25 3.47 14.44 3.64L14.44 3.64L14.44 3.64Q14.64 3.81 14.64 4.10L14.64 4.10L14.64 4.10Q14.64 4.40 14.45 4.58L14.45 4.58L14.45 4.58Q14.25 4.75 13.90 4.75L13.90 4.75L13.90 4.75Q13.56 4.75 13.37 4.58L13.37 4.58L13.37 4.58Q13.18 4.41 13.18 4.10L13.18 4.10L13.18 4.10Q13.18 3.81 13.37 3.64L13.37 3.64L13.37 3.64Q13.56 3.47 13.90 3.47ZM14.62 6.31L14.62 11.40L14.62 11.40Q14.62 11.56 14.68 11.65L14.68 11.65L14.68 11.65Q14.73 11.74 14.85 11.79L14.85 11.79L14.85 11.79Q14.98 11.83 15.17 11.84L15.17 11.84L15.17 11.84Q15.37 11.85 15.65 11.85L15.65 11.85L15.65 12.46L15.65 12.46Q15.47 12.46 15.17 12.46L15.17 12.46L15.17 12.46Q14.87 12.46 14.57 12.46L14.57 12.46L14.57 12.46Q14.27 12.46 14.03 12.45L14.03 12.45L14.03 12.45Q13.80 12.45 13.76 12.45L13.76 12.45L13.76 12.45Q13.37 12.45 13.07 12.46L13.07 12.46L13.07 12.46Q12.78 12.46 12.46 12.46L12.46 12.46L12.46 11.85L12.46 11.85Q12.83 11.85 13.04 11.83L13.04 11.83L13.04 11.83Q13.24 11.81 13.34 11.76L13.34 11.76L13.34 11.76Q13.44 11.72 13.46 11.63L13.46 11.63L13.46 11.63Q13.47 11.55 13.47 11.41L13.47 11.41L13.47 7.20L13.47 7.20Q13.47 7.10 13.42 7.05L13.42 7.05L13.42 7.05Q13.37 7.01 13.25 6.98L13.25 6.98L13.25 6.98Q13.14 6.96 12.95 6.96L12.95 6.96L12.95 6.96Q12.76 6.95 12.50 6.95L12.50 6.95L12.50 6.34L12.50 6.34Q13.08 6.34 13.59 6.34L13.59 6.34L13.59 6.34Q14.10 6.33 14.62 6.31L14.62 6.31ZM16.13 12.46L16.13 11.85L16.13 11.85Q16.52 11.85 16.73 11.84L16.73 11.84L16.73 11.84Q16.94 11.83 17.04 11.79L17.04 11.79L17.04 11.79Q17.14 11.74 17.17 11.68L17.17 11.68L17.17 11.68Q17.19 11.61 17.19 11.50L17.19 11.50L17.19 7.18L17.19 7.18Q17.19 7.10 17.14 7.05L17.14 7.05L17.14 7.05Q17.10 7 16.98 6.98L16.98 6.98L16.98 6.98Q16.87 6.96 16.68 6.96L16.68 6.96L16.68 6.96Q16.48 6.95 16.17 6.95L16.17 6.95L16.17 6.34L16.17 6.34Q16.78 6.34 17.29 6.34L17.29 6.34L17.29 6.34Q17.80 6.33 18.29 6.31L18.29 6.31L18.29 7.27L18.29 7.27Q18.76 6.75 19.36 6.47L19.36 6.47L19.36 6.47Q19.97 6.19 20.65 6.19L20.65 6.19L20.65 6.19Q21.65 6.19 22.18 6.73L22.18 6.73L22.18 6.73Q22.72 7.27 22.72 8.43L22.72 8.43L22.72 11.57L22.72 11.57Q22.72 11.68 22.76 11.74L22.76 11.74L22.76 11.74Q22.81 11.79 22.92 11.82L22.92 11.82L22.92 11.82Q23.04 11.84 23.22 11.84L23.22 11.84L23.22 11.84Q23.41 11.85 23.67 11.85L23.67 11.85L23.67 12.46L23.67 12.46Q23.51 12.46 23.35 12.46L23.35 12.46L23.35 12.46Q23.19 12.46 23.01 12.46L23.01 12.46L23.01 12.46Q22.84 12.46 22.64 12.46L22.64 12.46L22.64 12.46Q22.45 12.46 22.21 12.45L22.21 12.45L22.21 12.45Q21.71 12.45 21.31 12.46L21.31 12.46L21.31 12.46Q20.92 12.46 20.52 12.46L20.52 12.46L20.52 11.85L20.52 11.85Q20.91 11.85 21.12 11.84L21.12 11.84L21.12 11.84Q21.33 11.83 21.43 11.79L21.43 11.79L21.43 11.79Q21.53 11.75 21.54 11.69L21.54 11.69L21.54 11.69Q21.56 11.63 21.56 11.54L21.56 11.54L21.56 8.83L21.56 8.83Q21.56 8.37 21.51 7.99L21.51 7.99L21.51 7.99Q21.46 7.62 21.32 7.38L21.32 7.38L21.32 7.38Q21.18 7.14 20.94 7.02L20.94 7.02L20.94 7.02Q20.69 6.90 20.31 6.90L20.31 6.90L20.31 6.90Q19.94 6.90 19.63 7.02L19.63 7.02L19.63 7.02Q19.33 7.14 19.08 7.30L19.08 7.30L19.08 7.30Q18.84 7.47 18.66 7.66L18.66 7.66L18.66 7.66Q18.48 7.85 18.35 8.01L18.35 8.01L18.35 8.01Q18.33 8.52 18.33 9.05L18.33 9.05L18.33 11.53L18.33 11.53Q18.33 11.66 18.39 11.72L18.39 11.72L18.39 11.72Q18.44 11.79 18.57 11.82L18.57 11.82L18.57 11.82Q18.70 11.85 18.89 11.85L18.89 11.85L18.89 11.85Q19.09 11.85 19.37 11.85L19.37 11.85L19.37 12.46L19.37 12.46Q19.19 12.46 19.02 12.46L19.02 12.46L19.02 12.46Q18.85 12.46 18.67 12.46L18.67 12.46L18.67 12.46Q18.48 12.46 18.28 12.46L18.28 12.46L18.28 12.46Q18.07 12.46 17.82 12.45L17.82 12.45L17.82 12.45Q17.31 12.45 16.91 12.46L16.91 12.46L16.91 12.46Q16.52 12.46 16.13 12.46L16.13 12.46ZM30.78 3.60L30.78 11.59L30.78 11.59Q30.78 11.68 30.82 11.73L30.82 11.73L30.82 11.73Q30.86 11.79 30.98 11.81L30.98 11.81L30.98 11.81Q31.09 11.84 31.28 11.85L31.28 11.85L31.28 11.85Q31.48 11.85 31.78 11.85L31.78 11.85L31.78 12.46L31.78 12.46Q31.25 12.46 30.71 12.47L30.71 12.47L30.71 12.47Q30.17 12.48 29.69 12.49L29.69 12.49L29.69 12.49Q29.69 12.48 29.69 12.35L29.69 12.35L29.69 12.35Q29.69 12.21 29.69 12.03L29.69 12.03L29.69 12.03Q29.69 11.85 29.69 11.68L29.69 11.68L29.69 11.68Q29.68 11.50 29.67 11.42L29.67 11.42L29.67 11.42Q29.29 12.00 28.70 12.30L28.70 12.30L28.70 12.30Q28.12 12.61 27.35 12.61L27.35 12.61L27.35 12.61Q26.68 12.61 26.13 12.38L26.13 12.38L26.13 12.38Q25.58 12.15 25.19 11.73L25.19 11.73L25.19 11.73Q24.80 11.31 24.59 10.73L24.59 10.73L24.59 10.73Q24.38 10.14 24.38 9.42L24.38 9.42L24.38 9.42Q24.38 8.69 24.59 8.09L24.59 8.09L24.59 8.09Q24.81 7.49 25.20 7.08L25.20 7.08L25.20 7.08Q25.60 6.66 26.15 6.42L26.15 6.42L26.15 6.42Q26.70 6.19 27.37 6.19L27.37 6.19L27.37 6.19Q28.11 6.19 28.68 6.48L28.68 6.48L28.68 6.48Q29.24 6.77 29.61 7.30L29.61 7.30L29.63 4.51L29.63 4.51Q29.63 4.41 29.57 4.36L29.57 4.36L29.57 4.36Q29.51 4.31 29.38 4.28L29.38 4.28L29.38 4.28Q29.24 4.25 29.03 4.25L29.03 4.25L29.03 4.25Q28.82 4.25 28.52 4.25L28.52 4.25L28.52 3.62L28.52 3.62Q29.12 3.62 29.70 3.62L29.70 3.62L29.70 3.62Q30.28 3.61 30.78 3.60L30.78 3.60ZM27.59 6.90L27.59 6.90L27.59 6.90Q27.13 6.90 26.76 7.08L26.76 7.08L26.76 7.08Q26.38 7.26 26.11 7.58L26.11 7.58L26.11 7.58Q25.84 7.90 25.69 8.36L25.69 8.36L25.69 8.36Q25.55 8.83 25.55 9.40L25.55 9.40L25.55 9.40Q25.55 9.97 25.69 10.42L25.69 10.42L25.69 10.42Q25.84 10.88 26.11 11.21L26.11 11.21L26.11 11.21Q26.37 11.54 26.76 11.71L26.76 11.71L26.76 11.71Q27.14 11.89 27.61 11.89L27.61 11.89L27.61 11.89Q28.09 11.89 28.47 11.72L28.47 11.72L28.47 11.72Q28.85 11.55 29.12 11.21L29.12 11.21L29.12 11.21Q29.39 10.88 29.53 10.43L29.53 10.43L29.53 10.43Q29.67 9.98 29.67 9.41L29.67 9.41L29.67 9.41Q29.67 8.84 29.52 8.37L29.52 8.37L29.52 8.37Q29.37 7.91 29.09 7.58L29.09 7.58L29.09 7.58Q28.82 7.26 28.44 7.08L28.44 7.08L28.44 7.08Q28.05 6.90 27.59 6.90ZM36.07 3.64L39.63 3.64L39.63 3.64Q40.61 3.64 41.27 3.79L41.27 3.79L41.27 3.79Q41.94 3.94 42.35 4.22L42.35 4.22L42.35 4.22Q42.75 4.50 42.93 4.91L42.93 4.91L42.93 4.91Q43.10 5.33 43.10 5.87L43.10 5.87L43.10 5.87Q43.10 7.34 41.53 7.83L41.53 7.83L41.53 7.83Q42.51 8.05 43.00 8.61L43.00 8.61L43.00 8.61Q43.49 9.16 43.49 10.04L43.49 10.04L43.49 10.04Q43.49 10.53 43.33 10.98L43.33 10.98L43.33 10.98Q43.16 11.42 42.77 11.75L42.77 11.75L42.77 11.75Q42.38 12.08 41.74 12.27L41.74 12.27L41.74 12.27Q41.10 12.46 40.15 12.46L40.15 12.46L36.07 12.46L36.07 11.79L36.50 11.79L36.50 11.79Q36.78 11.79 36.93 11.75L36.93 11.75L36.93 11.75Q37.08 11.71 37.16 11.64L37.16 11.64L37.16 11.64Q37.23 11.57 37.24 11.48L37.24 11.48L37.24 11.48Q37.25 11.39 37.25 11.28L37.25 11.28L37.25 4.78L37.25 4.78Q37.25 4.64 37.22 4.55L37.22 4.55L37.22 4.55Q37.19 4.46 37.07 4.41L37.07 4.41L37.07 4.41Q36.96 4.36 36.72 4.34L36.72 4.34L36.72 4.34Q36.48 4.32 36.07 4.32L36.07 4.32L36.07 3.64ZM38.49 4.38L38.49 7.55L39.87 7.55L39.87 7.55Q40.36 7.55 40.74 7.44L40.74 7.44L40.74 7.44Q41.11 7.33 41.36 7.12L41.36 7.12L41.36 7.12Q41.62 6.90 41.75 6.61L41.75 6.61L41.75 6.61Q41.88 6.31 41.88 5.94L41.88 5.94L41.88 5.94Q41.88 5.61 41.77 5.33L41.77 5.33L41.77 5.33Q41.66 5.04 41.41 4.83L41.41 4.83L41.41 4.83Q41.17 4.62 40.77 4.50L40.77 4.50L40.77 4.50Q40.37 4.38 39.79 4.38L39.79 4.38L38.49 4.38ZM38.49 8.23L38.49 11.72L39.94 11.72L39.94 11.72Q41.11 11.72 41.67 11.27L41.67 11.27L41.67 11.27Q42.22 10.81 42.22 10.03L42.22 10.03L42.22 10.03Q42.22 9.56 42.06 9.22L42.06 9.22L42.06 9.22Q41.90 8.88 41.57 8.66L41.57 8.66L41.57 8.66Q41.23 8.44 40.71 8.33L40.71 8.33L40.71 8.33Q40.19 8.23 39.46 8.23L39.46 8.23L38.49 8.23ZM50.26 8.37L50.26 10.93L50.26 10.93Q50.26 11.29 50.29 11.47L50.29 11.47L50.29 11.47Q50.31 11.66 50.38 11.75L50.38 11.75L50.38 11.75Q50.45 11.83 50.58 11.84L50.58 11.84L50.58 11.84Q50.70 11.85 50.91 11.85L50.91 11.85L51.21 11.85L51.21 12.46L51.21 12.46Q50.67 12.46 50.15 12.47L50.15 12.47L50.15 12.47Q49.62 12.48 49.16 12.49L49.16 12.49L49.16 11.55L49.16 11.55Q48.75 12.08 48.18 12.34L48.18 12.34L48.18 12.34Q47.62 12.61 46.87 12.61L46.87 12.61L46.87 12.61Q46.38 12.61 45.98 12.47L45.98 12.47L45.98 12.47Q45.58 12.33 45.30 12.08L45.30 12.08L45.30 12.08Q45.02 11.83 44.87 11.49L44.87 11.49L44.87 11.49Q44.71 11.15 44.71 10.74L44.71 10.74L44.71 10.74Q44.71 10.30 44.89 9.94L44.89 9.94L44.89 9.94Q45.07 9.58 45.41 9.33L45.41 9.33L45.41 9.33Q45.75 9.08 46.24 8.94L46.24 8.94L46.24 8.94Q46.73 8.80 47.36 8.80L47.36 8.80L47.36 8.80Q47.79 8.80 48.23 8.86L48.23 8.86L48.23 8.86Q48.67 8.93 49.12 9.04L49.12 9.04L49.12 8.06L49.12 8.06Q49.12 7.44 48.70 7.11L48.70 7.11L48.70 7.11Q48.29 6.78 47.43 6.78L47.43 6.78L47.43 6.78Q46.72 6.78 46.31 7.06L46.31 7.06L46.31 7.06Q45.90 7.33 45.77 7.92L45.77 7.92L45.14 7.84L45.23 6.64L45.23 6.64Q45.66 6.44 46.25 6.31L46.25 6.31L46.25 6.31Q46.83 6.19 47.56 6.19L47.56 6.19L47.56 6.19Q48.29 6.19 48.80 6.32L48.80 6.32L48.80 6.32Q49.31 6.45 49.64 6.71L49.64 6.71L49.64 6.71Q49.96 6.98 50.11 7.39L50.11 7.39L50.11 7.39Q50.26 7.81 50.26 8.37L50.26 8.37ZM47.62 9.37L47.62 9.37L47.62 9.37Q47.21 9.37 46.88 9.46L46.88 9.46L46.88 9.46Q46.55 9.56 46.32 9.73L46.32 9.73L46.32 9.73Q46.09 9.90 45.97 10.14L45.97 10.14L45.97 10.14Q45.85 10.39 45.85 10.71L45.85 10.71L45.85 10.71Q45.85 10.99 45.95 11.20L45.95 11.20L45.95 11.20Q46.05 11.42 46.23 11.57L46.23 11.57L46.23 11.57Q46.41 11.72 46.66 11.81L46.66 11.81L46.66 11.81Q46.92 11.89 47.22 11.89L47.22 11.89L47.22 11.89Q47.54 11.89 47.88 11.79L47.88 11.79L47.88 11.79Q48.22 11.68 48.49 11.49L48.49 11.49L48.49 11.49Q48.77 11.29 48.94 11.00L48.94 11.00L48.94 11.00Q49.12 10.70 49.12 10.28L49.12 10.28L49.12 9.61L49.12 9.61Q48.71 9.50 48.34 9.43L48.34 9.43L48.34 9.43Q47.97 9.37 47.62 9.37ZM51.63 12.46L51.63 11.85L51.63 11.85Q52.01 11.85 52.22 11.84L52.22 11.84L52.22 11.84Q52.43 11.83 52.53 11.79L52.53 11.79L52.53 11.79Q52.64 11.74 52.66 11.68L52.66 11.68L52.66 11.68Q52.68 11.61 52.68 11.50L52.68 11.50L52.68 7.18L52.68 7.18Q52.68 7.10 52.63 7.05L52.63 7.05L52.63 7.05Q52.59 7 52.48 6.98L52.48 6.98L52.48 6.98Q52.36 6.96 52.17 6.96L52.17 6.96L52.17 6.96Q51.97 6.95 51.66 6.95L51.66 6.95L51.66 6.34L51.66 6.34Q52.27 6.34 52.78 6.34L52.78 6.34L52.78 6.34Q53.29 6.33 53.79 6.31L53.79 6.31L53.79 7.27L53.79 7.27Q54.25 6.75 54.85 6.47L54.85 6.47L54.85 6.47Q55.46 6.19 56.14 6.19L56.14 6.19L56.14 6.19Q57.14 6.19 57.67 6.73L57.67 6.73L57.67 6.73Q58.21 7.27 58.21 8.43L58.21 8.43L58.21 11.57L58.21 11.57Q58.21 11.68 58.26 11.74L58.26 11.74L58.26 11.74Q58.30 11.79 58.42 11.82L58.42 11.82L58.42 11.82Q58.53 11.84 58.71 11.84L58.71 11.84L58.71 11.84Q58.90 11.85 59.17 11.85L59.17 11.85L59.17 12.46L59.17 12.46Q59.00 12.46 58.84 12.46L58.84 12.46L58.84 12.46Q58.68 12.46 58.51 12.46L58.51 12.46L58.51 12.46Q58.33 12.46 58.14 12.46L58.14 12.46L58.14 12.46Q57.94 12.46 57.70 12.45L57.70 12.45L57.70 12.45Q57.20 12.45 56.81 12.46L56.81 12.46L56.81 12.46Q56.41 12.46 56.01 12.46L56.01 12.46L56.01 11.85L56.01 11.85Q56.40 11.85 56.62 11.84L56.62 11.84L56.62 11.84Q56.83 11.83 56.92 11.79L56.92 11.79L56.92 11.79Q57.02 11.75 57.04 11.69L57.04 11.69L57.04 11.69Q57.05 11.63 57.05 11.54L57.05 11.54L57.05 8.83L57.05 8.83Q57.05 8.37 57.00 7.99L57.00 7.99L57.00 7.99Q56.95 7.62 56.81 7.38L56.81 7.38L56.81 7.38Q56.67 7.14 56.43 7.02L56.43 7.02L56.43 7.02Q56.18 6.90 55.80 6.90L55.80 6.90L55.80 6.90Q55.43 6.90 55.13 7.02L55.13 7.02L55.13 7.02Q54.82 7.14 54.57 7.30L54.57 7.30L54.57 7.30Q54.33 7.47 54.15 7.66L54.15 7.66L54.15 7.66Q53.97 7.85 53.84 8.01L53.84 8.01L53.84 8.01Q53.82 8.52 53.82 9.05L53.82 9.05L53.82 11.53L53.82 11.53Q53.82 11.66 53.88 11.72L53.88 11.72L53.88 11.72Q53.94 11.79 54.06 11.82L54.06 11.82L54.06 11.82Q54.19 11.85 54.38 11.85L54.38 11.85L54.38 11.85Q54.58 11.85 54.86 11.85L54.86 11.85L54.86 12.46L54.86 12.46Q54.68 12.46 54.51 12.46L54.51 12.46L54.51 12.46Q54.34 12.46 54.16 12.46L54.16 12.46L54.16 12.46Q53.98 12.46 53.77 12.46L53.77 12.46L53.77 12.46Q53.56 12.46 53.31 12.45L53.31 12.45L53.31 12.45Q52.80 12.45 52.40 12.46L52.40 12.46L52.40 12.46Q52.01 12.46 51.63 12.46L51.63 12.46ZM59.60 12.46L59.60 11.85L59.60 11.85Q59.89 11.85 60.09 11.84L60.09 11.84L60.09 11.84Q60.29 11.83 60.42 11.78L60.42 11.78L60.42 11.78Q60.55 11.74 60.60 11.65L60.60 11.65L60.60 11.65Q60.66 11.55 60.66 11.39L60.66 11.39L60.66 4.58L60.66 4.58Q60.66 4.45 60.59 4.39L60.59 4.39L60.59 4.39Q60.53 4.32 60.41 4.29L60.41 4.29L60.41 4.29Q60.28 4.26 60.09 4.25L60.09 4.25L60.09 4.25Q59.90 4.25 59.64 4.25L59.64 4.25L59.64 3.63L59.64 3.63Q60.01 3.63 60.29 3.63L60.29 3.63L60.29 3.63Q60.58 3.63 60.83 3.63L60.83 3.63L60.83 3.63Q61.08 3.62 61.31 3.62L61.31 3.62L61.31 3.62Q61.54 3.61 61.80 3.60L61.80 3.60L61.80 9.07L63.64 7.68L63.64 7.68Q64.33 7.19 64.33 7.05L64.33 7.05L64.33 7.05Q64.33 7.01 64.28 6.99L64.28 6.99L64.28 6.99Q64.22 6.97 64.13 6.96L64.13 6.96L64.13 6.96Q64.04 6.95 63.91 6.95L63.91 6.95L63.91 6.95Q63.79 6.95 63.65 6.95L63.65 6.95L63.67 6.34L63.67 6.34Q64.03 6.35 64.30 6.35L64.30 6.35L64.30 6.35Q64.58 6.36 64.81 6.36L64.81 6.36L64.81 6.36Q65.19 6.36 65.59 6.35L65.59 6.35L65.59 6.35Q65.99 6.35 66.52 6.34L66.52 6.34L66.52 6.95L66.52 6.95Q66.24 6.95 66.08 6.96L66.08 6.96L66.08 6.96Q65.93 6.97 65.78 7.03L65.78 7.03L65.78 7.03Q65.63 7.09 65.43 7.23L65.43 7.23L65.43 7.23Q65.24 7.36 64.88 7.63L64.88 7.63L62.96 9.05L65.63 11.50L65.63 11.50Q65.87 11.73 66.07 11.80L66.07 11.80L66.07 11.80Q66.26 11.86 66.49 11.86L66.49 11.86L66.49 11.86Q66.56 11.86 66.64 11.86L66.64 11.86L66.64 11.86Q66.71 11.85 66.81 11.85L66.81 11.85L66.81 12.46L66.81 12.46Q66.47 12.46 66.14 12.46L66.14 12.46L66.14 12.46Q65.82 12.45 65.43 12.45L65.43 12.45L65.43 12.45Q65.18 12.45 64.97 12.45L64.97 12.45L64.97 12.45Q64.75 12.46 64.54 12.46L64.54 12.46L64.54 12.46Q64.34 12.46 64.14 12.46L64.14 12.46L64.14 12.46Q63.94 12.46 63.72 12.46L63.72 12.46L63.72 11.85L63.72 11.85Q64.09 11.85 64.24 11.84L64.24 11.84L64.24 11.84Q64.39 11.83 64.39 11.74L64.39 11.74L64.39 11.74Q64.39 11.67 64.30 11.56L64.30 11.56L64.30 11.56Q64.20 11.46 64.03 11.31L64.03 11.31L62.09 9.52L61.80 9.71L61.79 11.40L61.79 11.40Q61.79 11.54 61.83 11.63L61.83 11.63L61.83 11.63Q61.87 11.72 61.99 11.77L61.99 11.77L61.99 11.77Q62.10 11.82 62.31 11.84L62.31 11.84L62.31 11.84Q62.52 11.85 62.86 11.85L62.86 11.85L62.86 12.46L62.86 12.46Q62.51 12.46 62.14 12.46L62.14 12.46L62.14 12.46Q61.78 12.46 61.30 12.45L61.30 12.45L61.30 12.45Q61.27 12.45 61.06 12.45L61.06 12.45L61.06 12.45Q60.85 12.46 60.59 12.46L60.59 12.46L60.59 12.46Q60.32 12.46 60.04 12.46L60.04 12.46L60.04 12.46Q59.77 12.46 59.60 12.46L59.60 12.46Z"></path></g><!----><!----></svg>